<?xml version="1.0" encoding="utf-8"?>
<!-- Generator: Adobe Illustrator 23.1.1, SVG Export Plug-In . SVG Version: 6.00 Build 0)  -->
<svg version="1.1" id="Layer_1" xmlns="http://www.w3.org/2000/svg" xmlns:xlink="http://www.w3.org/1999/xlink" x="0px" y="0px"
	 viewBox="0 0 72 56" enable-background="new 0 0 72 56" xml:space="preserve">
<rect fill="#FFFFFF" width="72" height="56"/>
<g id="Xbox_Community_-_MDF_Family">
	<g>
		<g>
			<defs>
				<rect id="SVGID_1_" x="10.7" y="5" width="50.7" height="46"/>
			</defs>
			<clipPath id="SVGID_2_">
				<use xlink:href="#SVGID_1_"  overflow="visible"/>
			</clipPath>
			<g clip-path="url(#SVGID_2_)">
				<g>
					<defs>
						<rect id="SVGID_3_" x="10.7" y="5" width="50.7" height="46"/>
					</defs>
					<clipPath id="SVGID_4_">
						<use xlink:href="#SVGID_3_"  overflow="visible"/>
					</clipPath>
					<path clip-path="url(#SVGID_4_)" fill="#107C10" d="M58,51c-0.6,0-1.1-0.4-3-2.2c-0.5-0.5-1.3-1.2-1.5-1.3
						c-0.1,0-0.1-0.1-0.2-0.1c-0.2-0.1-0.4-0.2-1.6-0.2c-1.3,0-2.2,0-2.6,0c-0.4,0-1.3,0-2.6,0c-1.2,0-1.4,0.1-1.6,0.2
						c-0.1,0-0.2,0.1-0.2,0.1c-0.2,0.1-0.9,0.8-1.5,1.3c-2.1,1.9-2.4,2.3-3.2,2.2c-0.7-0.1-1.8-0.6-2.4-1.6
						c-0.8-1.1-0.9-2.5-0.5-4.6c0.4-2.2,2.1-7.6,2.5-8.4c0.1-0.3,0.4-0.5,0.7-0.8c0.1-0.4,0.3-0.8,0.7-1c0.3-0.2,1.1-0.7,2-0.9
						c0.8-0.2,2.2-0.4,2.8-0.1l0.2,0.1c0.1,0.1,0.3,0.2,0.5,0.2H47c0,0,1,0,2.1,0s2.1,0,2.1,0h0.4c0.2-0.1,0.4-0.2,0.5-0.2l0.2-0.1
						c0.6-0.3,2-0.1,2.8,0.1c0.9,0.2,1.7,0.7,2,0.9c0.4,0.2,0.6,0.6,0.7,1c0.3,0.2,0.5,0.5,0.7,0.8c0.5,0.9,2.2,6.4,2.5,8.4l0,0
						c0.4,2.1,0.2,3.4-0.5,4.6C59.9,50.4,58.8,50.9,58,51C58.1,51,58.1,51,58,51 M50.1,44.5c0.4,0,1,0,1.6,0c1.7,0,2.3,0.2,3,0.7
						c0,0,0.1,0.1,0.2,0.1c0.3,0.2,0.8,0.6,1.9,1.7c0.4,0.4,1,1,1.4,1.3c0.1-0.1,0.1-0.1,0.2-0.2c0.2-0.3,0.5-0.7,0.1-2.7
						c-0.4-1.9-1.8-6.6-2.2-7.6c0,0-0.1,0-0.1-0.1l-0.6-0.3l-0.1-0.6v-0.1c-0.4-0.2-0.7-0.3-0.8-0.4c-0.5-0.1-1.1-0.2-1.4-0.2
						c-0.6,0.3-0.9,0.4-1.2,0.5c-0.1,0-0.2,0-0.7,0H50l0,0c-0.5,0-1,0-1.5,0h-1.4c-0.6,0-0.7,0-0.8,0c-0.3,0-0.6-0.2-1.2-0.5
						c-0.3,0-0.9,0.1-1.4,0.2c-0.2,0-0.4,0.1-0.8,0.4v0.1l-0.1,0.6L42,37.7c-0.1,0-0.1,0.1-0.1,0.1c-0.4,1-1.9,5.7-2.2,7.6
						c-0.4,1.9,0,2.4,0.1,2.7c0.1,0.1,0.1,0.2,0.2,0.2c0.4-0.4,1-0.9,1.4-1.3c1.1-1.1,1.6-1.5,1.9-1.7c0.1,0,0.1-0.1,0.2-0.1
						c0.7-0.4,1.3-0.6,3-0.7c1.4,0,2.3,0,2.7,0C49.3,44.5,49.6,44.5,50.1,44.5 M55.8,36.9C55.9,36.9,55.9,36.9,55.8,36.9L55.8,36.9z
						 M42.4,36.9L42.4,36.9L42.4,36.9"/>
				</g>
				<g>
					<defs>
						<rect id="SVGID_5_" x="10.7" y="5" width="50.7" height="46"/>
					</defs>
					<clipPath id="SVGID_6_">
						<use xlink:href="#SVGID_5_"  overflow="visible"/>
					</clipPath>
					<path clip-path="url(#SVGID_6_)" fill="#107C10" d="M49.2,39.2c-0.6,0-1.1-0.5-1.1-1.1s0.5-1.1,1.1-1.1s1.1,0.5,1.1,1.1
						C50.3,38.8,49.8,39.2,49.2,39.2"/>
				</g>
				<g>
					<defs>
						<rect id="SVGID_7_" x="10.7" y="5" width="50.7" height="46"/>
					</defs>
					<clipPath id="SVGID_8_">
						<use xlink:href="#SVGID_7_"  overflow="visible"/>
					</clipPath>
					<path clip-path="url(#SVGID_8_)" fill="#107C10" d="M45,20.8c1,0.5,1.9,1.1,2.7,1.9c0.8,0.7,1.5,1.6,2,2.5
						c0.6,0.9,1,1.9,1.3,2.9s0.5,2.1,0.5,3.2h-2.9c0-1.2-0.2-2.3-0.7-3.4s-1.1-2-1.9-2.8c-0.8-0.8-1.7-1.4-2.8-1.9s-2.2-0.7-3.4-0.7
						s-2.3,0.2-3.4,0.7c-1.1,0.5-2,1.1-2.8,1.9s-1.4,1.7-1.9,2.8C31.2,29,31,30.1,31,31.3c0,1.4-0.3,2.7-0.9,3.9s-1.5,2.3-2.6,3.1
						c1,0.5,1.9,1.1,2.7,1.9c0.8,0.7,1.5,1.6,2,2.5c0.5,0.9,1,1.9,1.3,2.9s0.5,2.1,0.5,3.2h-2.9c0-1.2-0.2-2.3-0.7-3.4
						c-0.5-1.1-1.1-2-1.9-2.8s-1.7-1.4-2.8-1.9c-1.1-0.5-2.2-0.7-3.4-0.7s-2.3,0.2-3.4,0.7s-2,1.1-2.8,1.9c-0.8,0.8-1.4,1.7-1.9,2.8
						s-0.7,2.2-0.7,3.4h-2.9c0-1.1,0.2-2.2,0.5-3.2s0.7-2,1.3-2.9s1.2-1.7,2-2.5c0.8-0.7,1.7-1.4,2.7-1.9c-1.1-0.8-2-1.9-2.6-3.1
						c-0.6-1.2-0.9-2.6-0.9-3.9c0-1.2,0.2-2.3,0.7-3.4s1.1-2,1.9-2.8c0.8-0.8,1.7-1.4,2.8-1.9c1.1-0.5,2.2-0.7,3.4-0.7
						c1.4,0,2.7,0.3,3.9,0.9c1.2,0.6,2.3,1.5,3.1,2.6c0.6-1.1,1.3-2.2,2.2-3.1s1.9-1.6,3.1-2.2c-1.1-0.8-2-1.9-2.6-3.1
						c-0.6-1.2-0.9-2.6-0.9-3.9c0-1.2,0.2-2.3,0.7-3.4c0.5-1.1,1.1-2,1.9-2.8s1.7-1.4,2.8-1.9c0.9-0.4,2-0.6,3.2-0.6
						s2.3,0.2,3.4,0.7s2,1.1,2.8,1.9s1.4,1.7,1.9,2.8s0.7,2.2,0.7,3.4c0,1.4-0.3,2.7-0.9,3.9C47,18.9,46.2,20,45,20.8 M22.3,37.1
						c0.8,0,1.5-0.2,2.3-0.5c0.7-0.3,1.3-0.7,1.9-1.3c0.5-0.5,0.9-1.1,1.3-1.8c0.3-0.7,0.5-1.5,0.5-2.3s-0.2-1.5-0.5-2.3
						c-0.3-0.7-0.7-1.3-1.3-1.9c-0.5-0.5-1.1-0.9-1.9-1.3c-0.7-0.3-1.5-0.5-2.3-0.5s-1.6,0.2-2.3,0.5c-0.7,0.3-1.3,0.7-1.8,1.3
						c-0.5,0.5-0.9,1.1-1.3,1.9c-0.3,0.7-0.5,1.5-0.5,2.3s0.2,1.6,0.5,2.3s0.7,1.3,1.3,1.8c0.5,0.5,1.1,0.9,1.8,1.3
						C20.8,36.9,21.5,37.1,22.3,37.1 M34,13.8c0,0.8,0.2,1.6,0.5,2.3c0.3,0.7,0.7,1.3,1.3,1.8c0.5,0.5,1.1,0.9,1.8,1.3
						c0.7,0.3,1.5,0.5,2.3,0.5s1.5-0.2,2.3-0.5c0.7-0.3,1.3-0.7,1.9-1.3c0.5-0.5,0.9-1.1,1.3-1.8c0.3-0.7,0.5-1.5,0.5-2.3
						s-0.2-1.5-0.5-2.3c-0.3-0.7-0.7-1.3-1.3-1.9c-0.5-0.5-1.1-0.9-1.9-1.3c-0.7-0.3-1.5-0.5-2.3-0.5S38.3,8,37.6,8.3
						S36.3,9,35.8,9.6c-0.5,0.5-0.9,1.1-1.3,1.9C34.2,12.2,34,13,34,13.8"/>
				</g>
			</g>
		</g>
	</g>
</g>
</svg>
