<?xml version="1.0" encoding="utf-8"?>
<!-- Generator: Adobe Illustrator 23.1.1, SVG Export Plug-In . SVG Version: 6.00 Build 0)  -->
<svg version="1.1" id="Layer_1" xmlns="http://www.w3.org/2000/svg" xmlns:xlink="http://www.w3.org/1999/xlink" x="0px" y="0px"
	 viewBox="0 0 72 56" enable-background="new 0 0 72 56" xml:space="preserve">
<rect fill="#FFFFFF" width="72" height="56"/>
<g id="Consoles">
	<path fill="#107C10" d="M69.6,16.2v23.5H2.4V16.2H69.6z M66.3,19.6H5.7v6.7h20.1v3.4H5.7v6.7h60.5V19.6H66.3z M57.9,29.7
		c-0.5,0-0.8-0.2-1.2-0.5c-0.3-0.3-0.5-0.7-0.5-1.2s0.2-0.8,0.5-1.2c0.3-0.3,0.7-0.5,1.2-0.5s0.8,0.2,1.2,0.5
		c0.3,0.3,0.5,0.7,0.5,1.2s-0.2,0.8-0.5,1.2C58.7,29.5,58.3,29.7,57.9,29.7z"/>
</g>
</svg>
